<svg width="24" height="24" viewBox="0 0 24 24" fill="none" xmlns="http://www.w3.org/2000/svg">
  <path d="M12 15C12 14.4477 11.5523 14 11 14C10.4477 14 10 14.4477 10 15C10 15.5523 10.4477 16 11 16C11.5523 16 12 15.5523 12 15Z" fill="#3B82F6"/>
  <path d="M14 15C14 14.4477 13.5523 14 13 14C12.4477 14 12 14.4477 12 15C12 15.5523 12.4477 16 13 16C13.5523 16 14 15.5523 14 15Z" fill="#3B82F6"/>
  <path d="M8 15C8 14.4477 7.55228 14 7 14C6.44772 14 6 14.4477 6 15C6 15.5523 6.44772 16 7 16C7.55228 16 8 15.5523 8 15Z" fill="#3B82F6"/>
  <path d="M10 13C10 12.4477 9.55228 12 9 12C8.44772 12 8 12.4477 8 13C8 13.5523 8.44772 14 9 14C9.55228 14 10 13.5523 10 13Z" fill="#3B82F6"/>
  <path fill-rule="evenodd" clip-rule="evenodd" d="M19.6 9.2C19.6 11.0882 18.0882 12.6 16.2 12.6C14.3118 12.6 12.8 11.0882 12.8 9.2C12.8 7.31177 14.3118 5.8 16.2 5.8C18.0882 5.8 19.6 7.31177 19.6 9.2ZM11.2 9.2C11.2 11.0882 9.68825 12.6 7.8 12.6C5.91177 12.6 4.4 11.0882 4.4 9.2C4.4 7.31177 5.91177 5.8 7.8 5.8C9.68825 5.8 11.2 7.31177 11.2 9.2ZM20.4 14.8C20.4 16.6882 18.8882 18.2 17 18.2C15.1118 18.2 13.6 16.6882 13.6 14.8C13.6 12.9118 15.1118 11.4 17 11.4C18.8882 11.4 20.4 12.9118 20.4 14.8ZM10.4 14.8C10.4 16.6882 8.88825 18.2 7 18.2C5.11177 18.2 3.6 16.6882 3.6 14.8C3.6 12.9118 5.11177 11.4 7 11.4C8.88825 11.4 10.4 12.9118 10.4 14.8ZM12 22C13.8882 22 15.4 20.4882 15.4 18.6C15.4 16.7118 13.8882 15.2 12 15.2C10.1118 15.2 8.6 16.7118 8.6 18.6C8.6 20.4882 10.1118 22 12 22Z" fill="#3B82F6"/>
</svg>